<svg version="1.1" id="Layer_1" xmlns="http://www.w3.org/2000/svg" xmlns:xlink="http://www.w3.org/1999/xlink" x="0px" y="0px"
	 width="100%" viewBox="0 0 2000 2000" enable-background="new 0 0 2000 2000" xml:space="preserve">
<path fill="#000000" opacity="1.000000" stroke="none" 
	d="
M1026.000000,0.999997 
	C1350.967041,1.000000 1675.934082,1.000000 2000.950562,1.000000 
	C2000.950562,667.566101 2000.950562,1334.132202 2000.950562,2001.000000 
	C1671.634033,2001.000000 1342.267944,2001.000000 1012.114685,2000.651367 
	C1012.502258,1999.868774 1013.643555,1999.260010 1014.856873,1999.028320 
	C1025.482300,1996.999512 1036.255005,1995.571533 1046.723755,1992.932495 
	C1062.633545,1988.921631 1076.559082,1980.444824 1090.587402,1972.184204 
	C1114.612793,1958.036987 1138.904419,1944.342041 1163.076172,1930.442871 
	C1181.379639,1919.917847 1199.670532,1909.370483 1218.289307,1898.901367 
	C1219.084229,1898.640869 1219.556885,1898.312012 1220.004639,1897.980713 
	C1219.979736,1897.978271 1219.979126,1898.028564 1220.335938,1898.011475 
	C1222.139526,1896.991211 1223.586060,1895.987915 1225.005737,1894.981445 
	C1224.978882,1894.978149 1224.976807,1895.032104 1225.303467,1895.013672 
	C1226.096191,1894.657104 1226.562256,1894.319092 1227.003418,1893.979004 
	C1226.978760,1893.977051 1226.978027,1894.026855 1227.314697,1894.009766 
	C1228.446411,1893.324585 1229.241577,1892.656494 1230.008789,1891.984375 
	C1229.980835,1891.980469 1229.979004,1892.036621 1230.305542,1892.016602 
	C1231.098755,1891.659180 1231.565430,1891.321655 1232.006104,1890.981567 
	C1231.980225,1890.979004 1231.980347,1891.031128 1232.335083,1891.012695 
	C1234.138184,1889.991821 1235.586670,1888.989136 1237.007446,1887.982910 
	C1236.979858,1887.979248 1236.977905,1888.034790 1237.304443,1888.015381 
	C1238.097412,1887.658081 1238.563843,1887.320312 1239.004761,1886.980225 
	C1238.979370,1886.977783 1238.979004,1887.028931 1239.333862,1887.011108 
	C1241.137085,1885.990723 1242.585449,1884.988037 1244.006592,1883.982056 
	C1243.979370,1883.978760 1243.977295,1884.033447 1244.303955,1884.014526 
	C1245.097168,1883.658081 1245.563599,1883.320435 1246.004883,1882.980469 
	C1245.979736,1882.978271 1245.979370,1883.028687 1246.333252,1883.011597 
	C1248.135620,1881.991211 1249.583984,1880.987793 1251.005615,1879.981201 
	C1250.978882,1879.977905 1250.976685,1880.031860 1251.303467,1880.013428 
	C1252.096069,1879.657104 1252.562012,1879.319092 1253.003296,1878.979126 
	C1252.978638,1878.977295 1252.978027,1879.026611 1253.314697,1879.009521 
	C1254.446289,1878.324341 1255.241211,1877.656250 1256.008545,1876.984375 
	C1255.980835,1876.980469 1255.979004,1877.036377 1256.305664,1877.016602 
	C1257.098389,1876.658813 1257.564697,1876.320923 1258.005371,1875.980713 
	C1257.979736,1875.978271 1257.979614,1876.029663 1258.334473,1876.011963 
	C1260.138062,1874.991943 1261.586670,1873.989502 1263.007812,1872.983276 
	C1262.980347,1872.979614 1262.978271,1873.035034 1263.304932,1873.015625 
	C1264.097778,1872.658447 1264.564087,1872.320679 1265.004883,1871.980469 
	C1264.979492,1871.978027 1264.979370,1872.029175 1265.334229,1872.011475 
	C1267.137085,1870.990723 1268.585205,1869.987793 1270.006104,1868.981567 
	C1269.979004,1868.978271 1269.977051,1869.032715 1270.303833,1869.014160 
	C1271.096680,1868.657593 1271.562744,1868.319702 1272.003906,1867.979492 
	C1271.979004,1867.977295 1271.978516,1868.027344 1272.332642,1868.010986 
	C1274.135132,1866.991089 1275.583618,1865.987549 1277.005371,1864.980957 
	C1276.978516,1864.977661 1276.976440,1865.031372 1277.303345,1865.013306 
	C1278.095947,1864.656982 1278.561768,1864.318726 1279.002930,1863.978760 
	C1278.978516,1863.976807 1278.977783,1864.026001 1279.314453,1864.009155 
	C1280.446045,1863.324097 1281.241089,1862.655884 1282.008301,1861.984009 
	C1281.980591,1861.980347 1281.978638,1862.036133 1282.305176,1862.015869 
	C1283.097778,1861.657837 1283.563965,1861.319946 1284.004639,1860.979858 
	C1283.979248,1860.977661 1283.978638,1861.028687 1284.333740,1861.010986 
	C1286.137695,1859.991211 1287.586548,1858.989136 1289.007812,1857.983521 
	C1288.980347,1857.979858 1288.978394,1858.035278 1289.305054,1858.015869 
	C1290.097778,1857.658569 1290.563843,1857.320557 1291.004639,1856.980225 
	C1290.979492,1856.978027 1290.979248,1857.028687 1291.334229,1857.011475 
	C1293.137329,1855.991455 1294.585449,1854.988403 1296.006592,1853.982056 
	C1295.979492,1853.978638 1295.977295,1854.033203 1296.304077,1854.014648 
	C1297.096924,1853.657959 1297.562988,1853.320068 1298.004150,1852.979980 
	C1297.979248,1852.977661 1297.978882,1853.027832 1298.333008,1853.011475 
	C1300.135376,1851.991211 1301.583618,1850.987549 1303.005127,1849.980713 
	C1302.978394,1849.977539 1302.976318,1850.031128 1303.303223,1850.013184 
	C1304.095703,1849.656860 1304.561157,1849.318359 1305.002441,1848.978271 
	C1304.978149,1848.976440 1304.977295,1849.025146 1305.333984,1849.007812 
	C1307.136963,1847.987671 1308.583374,1846.984863 1310.004395,1845.979980 
	C1309.979126,1845.977783 1309.978638,1846.028442 1310.333740,1846.010864 
	C1312.137451,1844.990845 1313.585815,1843.988525 1315.007080,1842.982544 
	C1314.979736,1842.979004 1314.977783,1843.033936 1315.304443,1843.014893 
	C1316.097168,1842.657837 1316.563110,1842.319580 1317.003906,1841.979492 
	C1316.978882,1841.977417 1316.978516,1842.027710 1317.333496,1842.010254 
	C1319.136353,1840.989990 1320.584351,1839.987183 1322.005615,1838.981201 
	C1321.978760,1838.977905 1321.976685,1839.031738 1322.303589,1839.013550 
	C1323.096313,1838.657104 1323.562012,1838.318848 1324.003052,1837.978760 
	C1323.978394,1837.976807 1323.977783,1838.026123 1324.331787,1838.009521 
	C1326.134277,1836.989624 1327.582764,1835.986450 1329.005371,1834.980713 
	C1328.979736,1834.978394 1328.979614,1835.030029 1329.345459,1835.011230 
	C1331.817383,1833.655762 1333.923584,1832.318848 1336.004517,1830.979858 
	C1335.979248,1830.977661 1335.978638,1831.028198 1336.333740,1831.010376 
	C1338.137207,1829.990112 1339.585571,1828.987793 1341.006714,1827.982178 
	C1340.979492,1827.978760 1340.977295,1828.033447 1341.303955,1828.014282 
	C1342.096436,1827.656982 1342.562256,1827.318726 1343.003174,1826.978516 
	C1342.978394,1826.976685 1342.977661,1827.026611 1343.332642,1827.009277 
	C1345.135864,1825.989380 1346.584106,1824.986938 1348.005493,1823.981079 
	C1347.978638,1823.977783 1347.976562,1824.031616 1348.303467,1824.013672 
	C1349.096191,1823.657349 1349.562012,1823.319092 1350.003174,1822.978760 
	C1349.978516,1822.976807 1349.977905,1823.026367 1350.331909,1823.009521 
	C1352.134277,1821.989502 1353.582642,1820.986328 1355.005371,1819.980713 
	C1354.979736,1819.978271 1354.979492,1820.029785 1355.345459,1820.011230 
	C1357.817261,1818.655518 1359.923218,1817.318481 1362.003906,1815.979370 
	C1361.978760,1815.977295 1361.978271,1816.027832 1362.333496,1816.010132 
	C1364.136841,1814.989868 1365.585083,1813.987305 1367.006104,1812.981445 
	C1366.979004,1812.978271 1366.977051,1813.032837 1367.303711,1813.013794 
	C1368.095825,1812.656372 1368.561157,1812.317871 1369.002197,1811.977661 
	C1368.977783,1811.975952 1368.976807,1812.025024 1369.332275,1812.008301 
	C1371.135864,1810.989136 1372.583862,1809.986572 1374.005127,1808.980835 
	C1373.978638,1808.977783 1373.976440,1809.031128 1374.303345,1809.013306 
	C1375.095947,1808.657104 1375.561768,1808.318726 1376.002930,1807.978516 
	C1375.978271,1807.976685 1375.977661,1808.025879 1376.331787,1808.009277 
	C1378.134033,1806.989258 1379.582153,1805.985962 1381.004883,1804.980225 
	C1380.979492,1804.978027 1380.979248,1805.029053 1381.345215,1805.010986 
	C1383.817261,1803.655762 1385.923340,1802.318726 1388.004150,1800.979492 
	C1387.978882,1800.977417 1387.978516,1801.028076 1388.333740,1801.010498 
	C1390.137085,1799.990356 1391.585205,1798.987671 1393.006104,1797.981567 
	C1392.979004,1797.978271 1392.977051,1798.032837 1393.303833,1798.013916 
	C1394.095825,1797.656372 1394.561035,1797.317749 1395.001953,1796.977417 
	C1394.977539,1796.975708 1394.976440,1797.024414 1395.331909,1797.008057 
	C1397.135376,1795.988892 1398.583252,1794.985962 1400.004639,1793.979980 
	C1399.978027,1793.977051 1399.975952,1794.030396 1400.302856,1794.012573 
	C1401.095337,1793.656372 1401.560913,1793.317871 1402.002197,1792.977661 
	C1401.978027,1792.975952 1401.976929,1793.024658 1402.331909,1793.008057 
	C1404.134399,1791.988403 1405.582031,1790.985229 1407.004517,1789.979980 
	C1406.979370,1789.977783 1406.979004,1790.028320 1407.335938,1790.010986 
	C1409.073242,1788.954102 1410.453491,1787.914673 1412.027344,1786.572144 
	C1412.695312,1786.125610 1413.219604,1786.068359 1413.637451,1785.826904 
	C1438.352173,1771.544189 1463.058105,1757.246338 1487.942993,1743.242798 
	C1489.019409,1743.247192 1490.003052,1743.107300 1490.803101,1742.647827 
	C1501.593628,1736.450806 1512.362549,1730.216309 1523.129028,1723.977661 
	C1546.671021,1710.336182 1570.183472,1696.643677 1593.753784,1683.051880 
	C1620.989868,1667.346313 1648.292236,1651.755249 1675.506348,1636.011963 
	C1677.581177,1634.811890 1679.184448,1632.796753 1681.368164,1631.084961 
	C1694.147217,1623.844971 1706.550293,1616.654907 1718.986328,1609.522339 
	C1732.983887,1601.494019 1747.034424,1593.558472 1761.018677,1585.507568 
	C1775.150024,1577.372192 1789.203369,1569.101685 1803.336792,1560.970337 
	C1817.874512,1552.606323 1832.242188,1543.839722 1843.706665,1531.493530 
	C1851.751343,1522.830688 1859.289062,1513.458130 1865.619751,1503.491699 
	C1879.815552,1481.143066 1887.773438,1456.229858 1887.802490,1429.880493 
	C1888.118408,1143.252075 1888.015381,856.623108 1887.907471,569.994324 
	C1887.904907,563.163452 1887.037964,556.229431 1885.685059,549.522827 
	C1882.164307,532.066956 1876.490356,515.420410 1867.542603,499.801178 
	C1858.939697,484.783997 1847.734131,472.046356 1835.016724,460.739258 
	C1820.191650,447.558441 1802.105957,439.119781 1785.168457,429.056000 
	C1772.958618,421.801147 1760.570557,414.846405 1748.268066,407.747192 
	C1734.576050,399.846252 1720.911133,391.898132 1707.197388,384.035278 
	C1692.767456,375.761902 1678.263062,367.618225 1663.847656,359.319855 
	C1649.882568,351.280670 1635.995483,343.105835 1622.062378,335.011078 
	C1609.767212,327.867920 1597.466675,320.733856 1585.148560,313.630524 
	C1571.455933,305.734497 1557.746094,297.868469 1544.033813,290.006622 
	C1529.601929,281.732269 1515.141968,273.506561 1500.724243,265.207672 
	C1486.755737,257.167419 1472.828613,249.055557 1458.877441,240.985291 
	C1444.345337,232.579117 1429.805542,224.186508 1415.270752,215.785172 
	C1401.570312,207.866089 1387.875610,199.937057 1374.171631,192.024063 
	C1361.869507,184.920410 1349.555420,177.837601 1337.251831,170.736450 
	C1323.567505,162.838303 1309.893799,154.921661 1296.206665,147.028473 
	C1283.907104,139.935471 1271.588867,132.874878 1259.291138,125.778786 
	C1245.592163,117.874283 1231.929688,109.906548 1218.209106,102.039749 
	C1206.165649,95.134499 1194.018066,88.410133 1181.999390,81.462524 
	C1165.793701,72.094521 1149.708740,62.517799 1133.495728,53.162815 
	C1117.436157,43.896389 1101.078247,35.130474 1085.223267,25.530499 
	C1067.346191,14.706143 1048.704590,6.193288 1027.903931,2.924148 
	C1027.186279,2.811350 1026.630981,1.664748 1026.000000,0.999997 
z"/>
<path fill="#000000" opacity="1.000000" stroke="none" 
	d="
M990.000000,2001.000000 
	C660.366699,2001.000000 330.733429,2001.000000 1.050077,2001.000000 
	C1.050077,1334.434204 1.050077,667.868469 1.050077,1.000000 
	C325.699341,1.000000 650.398743,1.000000 975.882690,1.331133 
	C975.837769,2.106003 975.055786,2.716229 974.171753,2.968110 
	C963.535156,5.998536 952.294006,7.693114 942.367554,12.254111 
	C925.568604,19.972860 909.446106,29.225424 893.317749,38.326653 
	C873.235840,49.658833 853.482300,61.571228 833.502502,73.086449 
	C812.547607,85.163620 791.434448,96.966530 770.496521,109.072693 
	C745.366638,123.602562 720.367615,138.358521 695.273987,152.951416 
	C683.840820,159.600250 672.292480,166.050842 660.840088,172.666962 
	C646.872498,180.736145 632.974304,188.925629 619.002075,196.986694 
	C606.980591,203.922287 594.866211,210.696716 582.849487,217.640488 
	C568.901855,225.700043 555.049500,233.924713 541.093140,241.968994 
	C529.062439,248.903366 516.900208,255.609619 504.875549,262.554260 
	C490.910461,270.619476 477.046600,278.859711 463.111816,286.977631 
	C449.176880,295.095642 435.219055,303.174530 421.252228,311.237549 
	C405.192505,320.508820 389.127350,329.770874 373.035248,338.985748 
	C361.003937,345.875244 348.884125,352.610779 336.880127,359.547058 
	C322.912018,367.618195 309.066956,375.902405 295.094025,383.965027 
	C283.091583,390.890656 270.928284,397.537933 258.936493,404.481598 
	C240.935150,414.904999 222.885330,425.256042 205.115768,436.064728 
	C192.023514,444.028351 178.451401,451.586792 166.689880,461.266052 
	C148.243042,476.447083 134.408539,495.612976 125.469582,518.020935 
	C118.419739,535.693237 114.077965,554.026672 114.070869,573.052673 
	C113.967148,851.159973 113.971664,1129.267334 114.084007,1407.374634 
	C114.089394,1420.716431 114.990601,1434.085938 116.092064,1447.391479 
	C117.249207,1461.369751 121.954292,1474.494507 127.688675,1487.185669 
	C137.082138,1507.975220 150.476456,1525.843506 168.030396,1540.457886 
	C172.984100,1544.582153 178.206390,1548.466309 183.670273,1551.875854 
	C192.006104,1557.078003 200.670074,1561.753052 209.175278,1566.685303 
	C223.127640,1574.776489 237.059982,1582.902344 251.009125,1590.999268 
	C263.283356,1598.123657 275.545135,1605.270020 287.856812,1612.329346 
	C298.899597,1618.661255 310.002808,1624.887817 321.068359,1631.518799 
	C321.465820,1632.259277 321.818848,1632.737793 322.290863,1633.010498 
	C331.884277,1638.551514 341.498810,1644.055908 351.093964,1649.593994 
	C367.497162,1659.061890 383.885437,1668.555542 400.288849,1678.022827 
	C412.252075,1684.927612 424.242676,1691.784912 436.197632,1698.703857 
	C452.456726,1708.113892 468.705414,1717.542114 484.935089,1727.002808 
	C494.638428,1732.659180 504.296753,1738.392700 514.190552,1744.349365 
	C527.600220,1752.236084 540.760071,1759.925293 553.998779,1767.476685 
	C566.659729,1774.698486 579.402527,1781.777100 592.473511,1788.958740 
	C593.560425,1789.332153 594.314758,1789.610962 595.001221,1790.007202 
	C610.001892,1798.663452 624.990417,1807.340576 639.990784,1815.997437 
	C651.384888,1822.573120 662.806519,1829.101440 674.189819,1835.695679 
	C690.432373,1845.104858 706.646362,1854.563599 722.881470,1863.985596 
	C735.226868,1871.150146 747.539307,1878.373413 759.956299,1885.411987 
	C768.149170,1890.056152 776.501282,1894.419312 784.948120,1899.240723 
	C793.524597,1904.331299 801.961182,1909.044067 810.339661,1913.857910 
	C824.298584,1921.878052 838.222473,1929.959351 852.156982,1938.021851 
	C864.320251,1945.059814 876.471313,1952.118652 888.639709,1959.147583 
	C902.437744,1967.118042 916.015503,1975.510254 930.112915,1982.911621 
	C948.050110,1992.329224 967.196533,1998.094727 987.611328,1999.082764 
	C988.436523,1999.122681 989.205017,2000.334351 990.000000,2001.000000 
z"/>
<path fill="#9DCCED" opacity="1.000000" stroke="none" 
	d="
M990.468567,2001.000000 
	C989.205017,2000.334351 988.436523,1999.122681 987.611328,1999.082764 
	C967.196533,1998.094727 948.050110,1992.329224 930.112915,1982.911621 
	C916.015503,1975.510254 902.437744,1967.118042 888.639709,1959.147583 
	C876.471313,1952.118652 864.320251,1945.059814 852.156982,1938.021851 
	C838.222473,1929.959351 824.298584,1921.878052 810.339661,1913.857910 
	C801.961182,1909.044067 793.524597,1904.331299 784.972168,1898.849365 
	C785.246643,1896.520874 785.535095,1894.869873 786.098511,1893.318726 
	C795.127380,1868.459229 804.143433,1843.594849 813.267334,1818.770142 
	C817.911133,1806.134888 822.762817,1793.576050 827.886902,1781.052246 
	C880.100098,1811.050903 932.049866,1840.804199 983.716614,1871.041016 
	C995.674194,1878.038940 1006.284729,1878.203979 1018.224609,1871.107910 
	C1048.813965,1852.928223 1079.807861,1835.429932 1110.604126,1817.597534 
	C1132.179565,1805.104248 1153.695923,1792.509155 1175.566650,1779.896973 
	C1218.977905,1754.982666 1262.076172,1730.156738 1305.138062,1705.267944 
	C1326.160400,1693.117432 1347.115356,1680.850220 1368.457886,1668.526855 
	C1374.862549,1664.957275 1380.932251,1661.534180 1386.954102,1658.029053 
	C1406.300659,1646.767456 1425.629639,1635.475342 1445.317627,1624.104492 
	C1446.268555,1623.726807 1446.889526,1623.478027 1447.462769,1623.146973 
	C1496.866089,1594.617676 1546.277710,1566.103271 1595.657593,1537.533691 
	C1609.609375,1529.461792 1623.466919,1521.226929 1637.697266,1512.987549 
	C1673.215576,1492.642578 1708.245117,1472.092896 1743.673828,1452.256104 
	C1757.147949,1444.711670 1762.811401,1434.260742 1762.801270,1418.993286 
	C1762.627197,1157.359619 1762.676270,895.725891 1762.676025,634.092102 
	C1762.676025,615.761047 1762.675415,597.430054 1762.672852,579.098999 
	C1762.671143,566.937134 1757.745972,557.969177 1746.885498,551.705444 
	C1536.802002,430.539520 1326.792603,309.244812 1116.769409,187.974564 
	C1083.470703,168.747543 1050.132812,149.587799 1016.907349,130.235153 
	C1005.774475,123.750687 995.388672,122.937950 983.820129,130.048386 
	C962.699219,143.030075 940.969727,155.021713 919.491821,167.422363 
	C699.230713,294.594177 479.003906,421.825562 258.623230,548.789917 
	C245.093582,556.584534 239.179001,566.862915 239.189301,582.362244 
	C239.374329,860.993774 239.323883,1139.625488 239.324265,1418.257080 
	C239.324265,1420.090210 239.308105,1421.923584 239.336014,1423.756348 
	C239.515701,1435.558594 244.507355,1444.249146 255.003540,1450.211182 
	C283.659607,1466.489014 312.100433,1483.145508 340.660950,1499.592041 
	C348.719666,1504.232910 356.896942,1508.667847 364.995361,1513.558960 
	C352.744049,1547.433594 340.562775,1580.963379 328.246063,1614.443359 
	C326.155640,1620.125732 323.483002,1625.593750 321.079346,1631.160889 
	C310.002808,1624.887817 298.899597,1618.661255 287.856812,1612.329346 
	C275.545135,1605.270020 263.283356,1598.123657 251.009125,1590.999268 
	C237.059982,1582.902344 223.127640,1574.776489 209.175278,1566.685303 
	C200.670074,1561.753052 192.006104,1557.078003 183.670273,1551.875854 
	C178.206390,1548.466309 172.984100,1544.582153 168.030396,1540.457886 
	C150.476456,1525.843506 137.082138,1507.975220 127.688675,1487.185669 
	C121.954292,1474.494507 117.249207,1461.369751 116.092064,1447.391479 
	C114.990601,1434.085938 114.089394,1420.716431 114.084007,1407.374634 
	C113.971664,1129.267334 113.967148,851.159973 114.070869,573.052673 
	C114.077965,554.026672 118.419739,535.693237 125.469582,518.020935 
	C134.408539,495.612976 148.243042,476.447083 166.689880,461.266052 
	C178.451401,451.586792 192.023514,444.028351 205.115768,436.064728 
	C222.885330,425.256042 240.935150,414.904999 258.936493,404.481598 
	C270.928284,397.537933 283.091583,390.890656 295.094025,383.965027 
	C309.066956,375.902405 322.912018,367.618195 336.880127,359.547058 
	C348.884125,352.610779 361.003937,345.875244 373.035248,338.985748 
	C389.127350,329.770874 405.192505,320.508820 421.252228,311.237549 
	C435.219055,303.174530 449.176880,295.095642 463.111816,286.977631 
	C477.046600,278.859711 490.910461,270.619476 504.875549,262.554260 
	C516.900208,255.609619 529.062439,248.903366 541.093140,241.968994 
	C555.049500,233.924713 568.901855,225.700043 582.849487,217.640488 
	C594.866211,210.696716 606.980591,203.922287 619.002075,196.986694 
	C632.974304,188.925629 646.872498,180.736145 660.840088,172.666962 
	C672.292480,166.050842 683.840820,159.600250 695.273987,152.951416 
	C720.367615,138.358521 745.366638,123.602562 770.496521,109.072693 
	C791.434448,96.966530 812.547607,85.163620 833.502502,73.086449 
	C853.482300,61.571228 873.235840,49.658833 893.317749,38.326653 
	C909.446106,29.225424 925.568604,19.972860 942.367554,12.254111 
	C952.294006,7.693114 963.535156,5.998536 974.171753,2.968110 
	C975.055786,2.716229 975.837769,2.106003 976.333618,1.331133 
	C992.354248,1.000000 1008.708496,1.000000 1025.531372,0.999997 
	C1026.630981,1.664748 1027.186279,2.811350 1027.903931,2.924148 
	C1048.704590,6.193288 1067.346191,14.706143 1085.223267,25.530499 
	C1101.078247,35.130474 1117.436157,43.896389 1133.495728,53.162815 
	C1149.708740,62.517799 1165.793701,72.094521 1181.999390,81.462524 
	C1194.018066,88.410133 1206.165649,95.134499 1218.209106,102.039749 
	C1231.929688,109.906548 1245.592163,117.874283 1259.291138,125.778786 
	C1271.588867,132.874878 1283.907104,139.935471 1296.206665,147.028473 
	C1309.893799,154.921661 1323.567505,162.838303 1337.251831,170.736450 
	C1349.555420,177.837601 1361.869507,184.920410 1374.171631,192.024063 
	C1387.875610,199.937057 1401.570312,207.866089 1415.270752,215.785172 
	C1429.805542,224.186508 1444.345337,232.579117 1458.877441,240.985291 
	C1472.828613,249.055557 1486.755737,257.167419 1500.724243,265.207672 
	C1515.141968,273.506561 1529.601929,281.732269 1544.033813,290.006622 
	C1557.746094,297.868469 1571.455933,305.734497 1585.148560,313.630524 
	C1597.466675,320.733856 1609.767212,327.867920 1622.062378,335.011078 
	C1635.995483,343.105835 1649.882568,351.280670 1663.847656,359.319855 
	C1678.263062,367.618225 1692.767456,375.761902 1707.197388,384.035278 
	C1720.911133,391.898132 1734.576050,399.846252 1748.268066,407.747192 
	C1760.570557,414.846405 1772.958618,421.801147 1785.168457,429.056000 
	C1802.105957,439.119781 1820.191650,447.558441 1835.016724,460.739258 
	C1847.734131,472.046356 1858.939697,484.783997 1867.542603,499.801178 
	C1876.490356,515.420410 1882.164307,532.066956 1885.685059,549.522827 
	C1887.037964,556.229431 1887.904907,563.163452 1887.907471,569.994324 
	C1888.015381,856.623108 1888.118408,1143.252075 1887.802490,1429.880493 
	C1887.773438,1456.229858 1879.815552,1481.143066 1865.619751,1503.491699 
	C1859.289062,1513.458130 1851.751343,1522.830688 1843.706665,1531.493530 
	C1832.242188,1543.839722 1817.874512,1552.606323 1803.336792,1560.970337 
	C1789.203369,1569.101685 1775.150024,1577.372192 1761.018677,1585.507568 
	C1747.034424,1593.558472 1732.983887,1601.494019 1718.986328,1609.522339 
	C1706.550293,1616.654907 1694.147217,1623.844971 1681.023438,1631.099121 
	C1623.636841,1663.864502 1566.944092,1696.519043 1510.290283,1729.241333 
	C1502.680908,1733.636230 1495.268555,1738.372070 1487.764893,1742.950073 
	C1463.058105,1757.246338 1438.352173,1771.544189 1413.637451,1785.826904 
	C1413.219604,1786.068359 1412.695312,1786.125610 1411.672607,1786.596191 
	C1409.742554,1787.958374 1408.360718,1788.993286 1406.979004,1790.028320 
	C1406.979004,1790.028320 1406.979370,1789.977783 1406.642578,1789.876465 
	C1404.862793,1790.858276 1403.419922,1791.941528 1401.976929,1793.024658 
	C1401.976929,1793.024658 1401.978027,1792.975952 1401.673096,1792.871826 
	C1400.904175,1793.188599 1400.440063,1793.609375 1399.975830,1794.030273 
	C1399.975952,1794.030396 1399.978027,1793.977051 1399.641846,1793.887817 
	C1397.862549,1794.873901 1396.419434,1795.949219 1394.976440,1797.024414 
	C1394.976440,1797.024414 1394.977539,1796.975708 1394.673584,1796.874146 
	C1393.905396,1797.192627 1393.441162,1797.612671 1392.977051,1798.032715 
	C1392.977051,1798.032837 1392.979004,1797.978271 1392.642456,1797.900635 
	C1390.863403,1798.891235 1389.421021,1799.959717 1387.978516,1801.028076 
	C1387.978516,1801.028076 1387.978882,1800.977417 1387.636475,1800.874512 
	C1385.189087,1802.190796 1383.084106,1803.609863 1380.979248,1805.029053 
	C1380.979248,1805.029053 1380.979492,1804.978027 1380.642700,1804.878418 
	C1378.863159,1805.861206 1377.420410,1806.943604 1375.977661,1808.025879 
	C1375.977661,1808.025879 1375.978271,1807.976685 1375.673828,1807.874023 
	C1374.905029,1808.191162 1374.440674,1808.611084 1373.976440,1809.031128 
	C1373.976440,1809.031128 1373.978638,1808.977783 1373.642334,1808.889404 
	C1371.863037,1809.875732 1370.419922,1810.950439 1368.976807,1812.025146 
	C1368.976807,1812.025024 1368.977783,1811.975952 1368.673584,1811.876831 
	C1367.905273,1812.196045 1367.441162,1812.614502 1366.977051,1813.032837 
	C1366.977051,1813.032837 1366.979004,1812.978271 1366.642700,1812.900391 
	C1364.863647,1813.890991 1363.420898,1814.959351 1361.978271,1816.027832 
	C1361.978271,1816.027832 1361.978760,1815.977295 1361.636230,1815.875977 
	C1359.188965,1817.193115 1357.084229,1818.611450 1354.979492,1820.029785 
	C1354.979492,1820.029785 1354.979736,1819.978271 1354.642334,1819.886230 
	C1352.862671,1820.871582 1351.420288,1821.948975 1349.977905,1823.026367 
	C1349.977905,1823.026367 1349.978516,1822.976807 1349.674438,1822.876831 
	C1348.905762,1823.195068 1348.441162,1823.613403 1347.976562,1824.031738 
	C1347.976562,1824.031616 1347.978638,1823.977783 1347.642578,1823.891846 
	C1345.863647,1824.879395 1344.420654,1825.953003 1342.977661,1827.026611 
	C1342.977661,1827.026611 1342.978394,1826.976685 1342.674194,1826.885010 
	C1341.905762,1827.206665 1341.441528,1827.619995 1340.977295,1828.033447 
	C1340.977295,1828.033447 1340.979492,1827.978760 1340.643066,1827.903687 
	C1338.864014,1828.895142 1337.421265,1829.961670 1335.978638,1831.028076 
	C1335.978638,1831.028198 1335.979248,1830.977661 1335.636597,1830.877197 
	C1333.189209,1832.194580 1331.084351,1833.612305 1328.979614,1835.030029 
	C1328.979614,1835.030029 1328.979736,1834.978394 1328.642334,1834.887207 
	C1326.862549,1835.872559 1325.420166,1836.949341 1323.977783,1838.026123 
	C1323.977783,1838.026123 1323.978394,1837.976807 1323.674072,1837.877686 
	C1322.905273,1838.196411 1322.441040,1838.614014 1321.976685,1839.031738 
	C1321.976685,1839.031738 1321.978760,1838.977905 1321.642822,1838.892090 
	C1319.864136,1839.880127 1318.421387,1840.953979 1316.978516,1842.027832 
	C1316.978516,1842.027710 1316.978882,1841.977417 1316.674683,1841.887939 
	C1315.906250,1842.210205 1315.442017,1842.622070 1314.977783,1843.033936 
	C1314.977783,1843.033936 1314.979736,1842.979004 1314.644043,1842.904297 
	C1312.864990,1843.895996 1311.421875,1844.962158 1309.978638,1846.028442 
	C1309.978638,1846.028442 1309.979126,1845.977783 1309.642212,1845.877441 
	C1307.862671,1846.859863 1306.419922,1847.942505 1304.977295,1849.025146 
	C1304.977295,1849.025146 1304.978149,1848.976440 1304.673828,1848.870483 
	C1303.905273,1849.186768 1303.440796,1849.609009 1302.976318,1850.031250 
	C1302.976318,1850.031128 1302.978394,1849.977539 1302.642334,1849.889160 
	C1300.863770,1850.876465 1299.421387,1851.952148 1297.979004,1853.027832 
	C1297.978882,1853.027832 1297.979248,1852.977661 1297.675415,1852.879761 
	C1296.906860,1853.198975 1296.442017,1853.615967 1295.977295,1854.033203 
	C1295.977295,1854.033203 1295.979492,1853.978638 1295.643188,1853.900391 
	C1293.864258,1854.890991 1292.421753,1855.959839 1290.979248,1857.028687 
	C1290.979248,1857.028687 1290.979492,1856.978027 1290.675659,1856.888550 
	C1289.907349,1857.211182 1289.442871,1857.623169 1288.978271,1858.035156 
	C1288.978394,1858.035278 1288.980347,1857.979858 1288.644287,1857.909912 
	C1286.864990,1858.902710 1285.421753,1859.965698 1283.978638,1861.028687 
	C1283.978638,1861.028687 1283.979248,1860.977661 1283.676025,1860.892090 
	C1282.907959,1861.216431 1282.443359,1861.626343 1281.978638,1862.036133 
	C1281.978638,1862.036133 1281.980591,1861.980347 1281.651123,1861.917725 
	C1280.540283,1862.578735 1279.759033,1863.302368 1278.977783,1864.026001 
	C1278.977783,1864.026001 1278.978516,1863.976807 1278.674194,1863.873291 
	C1277.905396,1864.190186 1277.440918,1864.610840 1276.976562,1865.031494 
	C1276.976440,1865.031372 1276.978516,1864.977661 1276.642212,1864.890625 
	C1274.863403,1865.878174 1273.420898,1866.952637 1271.978516,1868.027344 
	C1271.978516,1868.027344 1271.979004,1867.977295 1271.675049,1867.880127 
	C1270.906250,1868.199463 1270.441650,1868.616089 1269.977051,1869.032715 
	C1269.977051,1869.032715 1269.979004,1868.978271 1269.642822,1868.899902 
	C1267.864258,1869.890869 1266.421753,1870.959961 1264.979370,1872.029175 
	C1264.979370,1872.029175 1264.979492,1871.978027 1264.675781,1871.890991 
	C1263.907471,1872.214355 1263.442871,1872.624634 1262.978271,1873.034912 
	C1262.978271,1873.035034 1262.980347,1872.979614 1262.643921,1872.910522 
	C1260.864868,1873.904175 1259.422241,1874.966919 1257.979614,1876.029663 
	C1257.979614,1876.029663 1257.979736,1875.978271 1257.676514,1875.894043 
	C1256.908569,1876.218506 1256.443726,1876.627441 1255.979004,1877.036377 
	C1255.979004,1877.036377 1255.980835,1876.980469 1255.652222,1876.915039 
	C1254.541748,1877.575195 1253.759766,1878.300781 1252.978027,1879.026611 
	C1252.978027,1879.026611 1252.978638,1878.977295 1252.674683,1878.876465 
	C1251.906128,1879.194336 1251.441406,1879.613159 1250.976685,1880.031860 
	C1250.976685,1880.031860 1250.978882,1879.977905 1250.642822,1879.892578 
	C1248.864136,1880.880981 1247.421753,1881.954834 1245.979370,1883.028687 
	C1245.979370,1883.028687 1245.979736,1882.978271 1245.675903,1882.885742 
	C1244.907104,1883.206543 1244.442139,1883.619995 1243.977295,1884.033447 
	C1243.977295,1884.033447 1243.979370,1883.978760 1243.643555,1883.903320 
	C1241.864990,1884.894897 1240.421997,1885.961914 1238.979004,1887.028931 
	C1238.979004,1887.028931 1238.979370,1886.977783 1238.675659,1886.890869 
	C1237.907349,1887.214233 1237.442627,1887.624512 1236.977905,1888.034790 
	C1236.977905,1888.034790 1236.979858,1887.979248 1236.644043,1887.909912 
	C1234.865601,1888.903931 1233.422974,1889.967529 1231.980347,1891.031128 
	C1231.980347,1891.031128 1231.980225,1890.979004 1231.677246,1890.900635 
	C1230.909180,1891.227051 1230.444092,1891.631714 1229.979004,1892.036621 
	C1229.979004,1892.036621 1229.980835,1891.980469 1229.652222,1891.918457 
	C1228.541748,1892.579956 1227.759888,1893.303467 1226.978027,1894.026855 
	C1226.978027,1894.026855 1226.978760,1893.977051 1226.674561,1893.877808 
	C1225.906006,1894.196411 1225.441406,1894.614258 1224.976807,1895.032104 
	C1224.976807,1895.032104 1224.978882,1894.978149 1224.642822,1894.893188 
	C1222.864136,1895.881592 1221.421631,1896.955078 1219.979126,1898.028564 
	C1219.979126,1898.028564 1219.979736,1897.978271 1219.705566,1897.872192 
	C1218.943359,1898.121704 1218.455200,1898.477295 1217.967041,1898.833008 
	C1199.670532,1909.370483 1181.379639,1919.917847 1163.076172,1930.442871 
	C1138.904419,1944.342041 1114.612793,1958.036987 1090.587402,1972.184204 
	C1076.559082,1980.444824 1062.633545,1988.921631 1046.723755,1992.932495 
	C1036.255005,1995.571533 1025.482300,1996.999512 1014.856873,1999.028320 
	C1013.643555,1999.260010 1012.502258,1999.868774 1011.663818,2000.651367 
	C1004.979065,2001.000000 997.958069,2001.000000 990.468567,2001.000000 
z"/>
<path fill="#19ADFE" opacity="1.000000" stroke="none" 
	d="
M1487.942993,1743.242798 
	C1495.268555,1738.372070 1502.680908,1733.636230 1510.290283,1729.241333 
	C1566.944092,1696.519043 1623.636841,1663.864502 1680.662109,1631.174561 
	C1679.184448,1632.796753 1677.581177,1634.811890 1675.506348,1636.011963 
	C1648.292236,1651.755249 1620.989868,1667.346313 1593.753784,1683.051880 
	C1570.183472,1696.643677 1546.671021,1710.336182 1523.129028,1723.977661 
	C1512.362549,1730.216309 1501.593628,1736.450806 1490.803101,1742.647827 
	C1490.003052,1743.107300 1489.019409,1743.247192 1487.942993,1743.242798 
z"/>
<path fill="#1CAEFE" opacity="1.000000" stroke="none" 
	d="
M1329.345459,1835.011230 
	C1331.084351,1833.612305 1333.189209,1832.194580 1335.661865,1830.879395 
	C1333.923584,1832.318848 1331.817383,1833.655762 1329.345459,1835.011230 
z"/>
<path fill="#1CAEFE" opacity="1.000000" stroke="none" 
	d="
M1355.345459,1820.011108 
	C1357.084229,1818.611450 1359.188965,1817.193115 1361.661377,1815.878174 
	C1359.923218,1817.318481 1357.817261,1818.655518 1355.345459,1820.011108 
z"/>
<path fill="#1CAEFE" opacity="1.000000" stroke="none" 
	d="
M1381.345215,1805.010986 
	C1383.084106,1803.609863 1385.189087,1802.190796 1387.661621,1800.876709 
	C1385.923340,1802.318726 1383.817261,1803.655762 1381.345215,1805.010986 
z"/>
<path fill="#1CAEFE" opacity="1.000000" stroke="none" 
	d="
M1246.333252,1883.011597 
	C1247.421753,1881.954834 1248.864136,1880.880981 1250.669434,1879.895752 
	C1249.583984,1880.987793 1248.135620,1881.991211 1246.333252,1883.011597 
z"/>
<path fill="#1CAEFE" opacity="1.000000" stroke="none" 
	d="
M1258.334473,1876.011963 
	C1259.422241,1874.966919 1260.864868,1873.904175 1262.671387,1872.914185 
	C1261.586670,1873.989502 1260.138062,1874.991943 1258.334473,1876.011963 
z"/>
<path fill="#1CAEFE" opacity="1.000000" stroke="none" 
	d="
M1265.334229,1872.011475 
	C1266.421753,1870.959961 1267.864258,1869.890869 1269.669922,1868.903320 
	C1268.585205,1869.987793 1267.137085,1870.990723 1265.334229,1872.011475 
z"/>
<path fill="#1CAEFE" opacity="1.000000" stroke="none" 
	d="
M1239.333862,1887.011108 
	C1240.421997,1885.961914 1241.864990,1884.894897 1243.670898,1883.906616 
	C1242.585449,1884.988037 1241.137085,1885.990723 1239.333862,1887.011108 
z"/>
<path fill="#1CAEFE" opacity="1.000000" stroke="none" 
	d="
M1272.332520,1868.010864 
	C1273.420898,1866.952637 1274.863403,1865.878174 1276.668945,1864.893799 
	C1275.583618,1865.987549 1274.135132,1866.991089 1272.332520,1868.010864 
z"/>
<path fill="#1CAEFE" opacity="1.000000" stroke="none" 
	d="
M1284.333740,1861.010986 
	C1285.421753,1859.965698 1286.864990,1858.902710 1288.671875,1857.913574 
	C1287.586548,1858.989136 1286.137695,1859.991211 1284.333740,1861.010986 
z"/>
<path fill="#1CAEFE" opacity="1.000000" stroke="none" 
	d="
M1291.334229,1857.011475 
	C1292.421753,1855.959839 1293.864258,1854.890991 1295.670288,1853.903809 
	C1294.585449,1854.988403 1293.137329,1855.991455 1291.334229,1857.011475 
z"/>
<path fill="#1CAEFE" opacity="1.000000" stroke="none" 
	d="
M1298.333008,1853.011475 
	C1299.421387,1851.952148 1300.863770,1850.876465 1302.668945,1849.892334 
	C1301.583618,1850.987549 1300.135376,1851.991211 1298.333008,1853.011475 
z"/>
<path fill="#1CAEFE" opacity="1.000000" stroke="none" 
	d="
M1305.333984,1849.007812 
	C1306.419922,1847.942505 1307.862671,1846.859863 1309.667480,1845.879639 
	C1308.583374,1846.984863 1307.136963,1847.987671 1305.333984,1849.007812 
z"/>
<path fill="#1CAEFE" opacity="1.000000" stroke="none" 
	d="
M1232.335083,1891.012695 
	C1233.422974,1889.967529 1234.865601,1888.903931 1236.671631,1887.913452 
	C1235.586670,1888.989136 1234.138184,1889.991821 1232.335083,1891.012695 
z"/>
<path fill="#1CAEFE" opacity="1.000000" stroke="none" 
	d="
M1310.333740,1846.010864 
	C1311.421875,1844.962158 1312.864990,1843.895996 1314.671265,1842.907959 
	C1313.585815,1843.988525 1312.137451,1844.990845 1310.333740,1846.010864 
z"/>
<path fill="#1CAEFE" opacity="1.000000" stroke="none" 
	d="
M1220.335938,1898.011475 
	C1221.421631,1896.955078 1222.864136,1895.881592 1224.669678,1894.896484 
	C1223.586060,1895.987915 1222.139526,1896.991211 1220.335938,1898.011475 
z"/>
<path fill="#1CAEFE" opacity="1.000000" stroke="none" 
	d="
M1324.331787,1838.009521 
	C1325.420166,1836.949341 1326.862549,1835.872559 1328.667969,1834.889526 
	C1327.582764,1835.986450 1326.134277,1836.989624 1324.331787,1838.009521 
z"/>
<path fill="#1CAEFE" opacity="1.000000" stroke="none" 
	d="
M1317.333496,1842.010254 
	C1318.421387,1840.953979 1319.864136,1839.880127 1321.669678,1838.895386 
	C1320.584351,1839.987183 1319.136353,1840.989990 1317.333496,1842.010254 
z"/>
<path fill="#1CAEFE" opacity="1.000000" stroke="none" 
	d="
M1336.333740,1831.010254 
	C1337.421265,1829.961670 1338.864014,1828.895142 1340.670410,1827.906982 
	C1339.585571,1828.987793 1338.137207,1829.990112 1336.333740,1831.010254 
z"/>
<path fill="#1CAEFE" opacity="1.000000" stroke="none" 
	d="
M1343.332642,1827.009277 
	C1344.420654,1825.953003 1345.863647,1824.879395 1347.669434,1823.895020 
	C1346.584106,1824.986938 1345.135864,1825.989380 1343.332642,1827.009277 
z"/>
<path fill="#1CAEFE" opacity="1.000000" stroke="none" 
	d="
M1407.335938,1790.010986 
	C1408.360718,1788.993286 1409.742554,1787.958374 1411.479126,1786.899414 
	C1410.453491,1787.914673 1409.073242,1788.954102 1407.335938,1790.010986 
z"/>
<path fill="#1CAEFE" opacity="1.000000" stroke="none" 
	d="
M1350.331909,1823.009521 
	C1351.420288,1821.948975 1352.862671,1820.871582 1354.667969,1819.888672 
	C1353.582642,1820.986328 1352.134277,1821.989502 1350.331909,1823.009521 
z"/>
<path fill="#1CAEFE" opacity="1.000000" stroke="none" 
	d="
M1362.333374,1816.010010 
	C1363.420898,1814.959351 1364.863647,1813.890991 1366.669922,1812.903564 
	C1365.585083,1813.987305 1364.136841,1814.989868 1362.333374,1816.010010 
z"/>
<path fill="#1CAEFE" opacity="1.000000" stroke="none" 
	d="
M1388.333740,1801.010620 
	C1389.421021,1799.959717 1390.863403,1798.891235 1392.669678,1797.903809 
	C1391.585205,1798.987671 1390.137085,1799.990356 1388.333740,1801.010620 
z"/>
<path fill="#1CAEFE" opacity="1.000000" stroke="none" 
	d="
M1402.331909,1793.008057 
	C1403.419922,1791.941528 1404.862793,1790.858276 1406.667725,1789.878662 
	C1405.582031,1790.985229 1404.134399,1791.988403 1402.331909,1793.008057 
z"/>
<path fill="#1CAEFE" opacity="1.000000" stroke="none" 
	d="
M1369.332397,1812.008423 
	C1370.419922,1810.950439 1371.863037,1809.875732 1373.668945,1808.892456 
	C1372.583862,1809.986572 1371.135864,1810.989136 1369.332397,1812.008423 
z"/>
<path fill="#1CAEFE" opacity="1.000000" stroke="none" 
	d="
M1376.331787,1808.009277 
	C1377.420410,1806.943604 1378.863159,1805.861206 1380.668091,1804.880615 
	C1379.582153,1805.985962 1378.134033,1806.989258 1376.331787,1808.009277 
z"/>
<path fill="#1CAEFE" opacity="1.000000" stroke="none" 
	d="
M1395.331909,1797.008057 
	C1396.419434,1795.949219 1397.862549,1794.873901 1399.668335,1793.890869 
	C1398.583252,1794.985962 1397.135376,1795.988892 1395.331909,1797.008057 
z"/>
<path fill="#1CAEFE" opacity="1.000000" stroke="none" 
	d="
M1227.314697,1894.009766 
	C1227.759888,1893.303467 1228.541748,1892.579956 1229.680176,1891.922485 
	C1229.241577,1892.656494 1228.446411,1893.324585 1227.314697,1894.009766 
z"/>
<path fill="#1CAEFE" opacity="1.000000" stroke="none" 
	d="
M1253.314575,1879.009521 
	C1253.759766,1878.300781 1254.541748,1877.575195 1255.679932,1876.918823 
	C1255.241211,1877.656250 1254.446289,1878.324341 1253.314575,1879.009521 
z"/>
<path fill="#1CAEFE" opacity="1.000000" stroke="none" 
	d="
M1279.314453,1864.009155 
	C1279.759033,1863.302368 1280.540283,1862.578735 1281.678711,1861.921387 
	C1281.241089,1862.655884 1280.446045,1863.324097 1279.314453,1864.009155 
z"/>
<path fill="#1CAEFE" opacity="1.000000" stroke="none" 
	d="
M1256.305664,1877.016602 
	C1256.443726,1876.627441 1256.908569,1876.218506 1257.702148,1875.896362 
	C1257.564697,1876.320923 1257.098389,1876.658813 1256.305664,1877.016602 
z"/>
<path fill="#1CAEFE" opacity="1.000000" stroke="none" 
	d="
M1218.289307,1898.901367 
	C1218.455200,1898.477295 1218.943359,1898.121704 1219.730469,1897.874634 
	C1219.556885,1898.312012 1219.084229,1898.640869 1218.289307,1898.901367 
z"/>
<path fill="#1CAEFE" opacity="1.000000" stroke="none" 
	d="
M1251.303467,1880.013428 
	C1251.441406,1879.613159 1251.906128,1879.194336 1252.699341,1878.878174 
	C1252.562012,1879.319092 1252.096069,1879.657104 1251.303467,1880.013428 
z"/>
<path fill="#1CAEFE" opacity="1.000000" stroke="none" 
	d="
M1244.303955,1884.014526 
	C1244.442139,1883.619995 1244.907104,1883.206543 1245.701050,1882.887939 
	C1245.563599,1883.320435 1245.097168,1883.658081 1244.303955,1884.014526 
z"/>
<path fill="#1CAEFE" opacity="1.000000" stroke="none" 
	d="
M1400.302734,1794.012451 
	C1400.440063,1793.609375 1400.904175,1793.188599 1401.697388,1792.873535 
	C1401.560913,1793.317871 1401.095337,1793.656372 1400.302734,1794.012451 
z"/>
<path fill="#1CAEFE" opacity="1.000000" stroke="none" 
	d="
M1237.304443,1888.015381 
	C1237.442627,1887.624512 1237.907349,1887.214233 1238.701050,1886.893188 
	C1238.563843,1887.320312 1238.097412,1887.658081 1237.304443,1888.015381 
z"/>
<path fill="#1CAEFE" opacity="1.000000" stroke="none" 
	d="
M1230.305420,1892.016602 
	C1230.444092,1891.631714 1230.909180,1891.227051 1231.703125,1890.903198 
	C1231.565430,1891.321655 1231.098755,1891.659180 1230.305420,1892.016602 
z"/>
<path fill="#1CAEFE" opacity="1.000000" stroke="none" 
	d="
M1225.303467,1895.013672 
	C1225.441406,1894.614258 1225.906006,1894.196411 1226.699341,1893.879761 
	C1226.562256,1894.319092 1226.096191,1894.657104 1225.303467,1895.013672 
z"/>
<path fill="#1CAEFE" opacity="1.000000" stroke="none" 
	d="
M1393.303711,1798.013916 
	C1393.441162,1797.612671 1393.905396,1797.192627 1394.697998,1796.875854 
	C1394.561035,1797.317749 1394.095825,1797.656372 1393.303711,1798.013916 
z"/>
<path fill="#1CAEFE" opacity="1.000000" stroke="none" 
	d="
M1263.304810,1873.015625 
	C1263.442871,1872.624634 1263.907471,1872.214355 1264.701172,1871.893311 
	C1264.564087,1872.320679 1264.097778,1872.658447 1263.304810,1873.015625 
z"/>
<path fill="#1CAEFE" opacity="1.000000" stroke="none" 
	d="
M1270.303833,1869.014160 
	C1270.441650,1868.616089 1270.906250,1868.199463 1271.699951,1867.882324 
	C1271.562744,1868.319702 1271.096680,1868.657593 1270.303833,1869.014160 
z"/>
<path fill="#1CAEFE" opacity="1.000000" stroke="none" 
	d="
M1277.303467,1865.013428 
	C1277.440918,1864.610840 1277.905396,1864.190186 1278.698730,1863.875122 
	C1278.561768,1864.318726 1278.095947,1864.656982 1277.303467,1865.013428 
z"/>
<path fill="#1CAEFE" opacity="1.000000" stroke="none" 
	d="
M1282.305176,1862.015869 
	C1282.443359,1861.626343 1282.907959,1861.216431 1283.701416,1860.894287 
	C1283.563965,1861.319946 1283.097778,1861.657837 1282.305176,1862.015869 
z"/>
<path fill="#1CAEFE" opacity="1.000000" stroke="none" 
	d="
M1374.303345,1809.013306 
	C1374.440674,1808.611084 1374.905029,1808.191162 1375.698486,1807.875732 
	C1375.561768,1808.318726 1375.095947,1808.657104 1374.303345,1809.013306 
z"/>
<path fill="#1CAEFE" opacity="1.000000" stroke="none" 
	d="
M1289.304932,1858.015869 
	C1289.442871,1857.623169 1289.907349,1857.211182 1290.700928,1856.890869 
	C1290.563843,1857.320557 1290.097778,1857.658569 1289.304932,1858.015869 
z"/>
<path fill="#1CAEFE" opacity="1.000000" stroke="none" 
	d="
M1296.303955,1854.014526 
	C1296.442017,1853.615967 1296.906860,1853.198975 1297.700439,1852.882080 
	C1297.562988,1853.320068 1297.096924,1853.657959 1296.303955,1854.014526 
z"/>
<path fill="#1CAEFE" opacity="1.000000" stroke="none" 
	d="
M1367.303711,1813.013794 
	C1367.441162,1812.614502 1367.905273,1812.196045 1368.697998,1811.878540 
	C1368.561157,1812.317871 1368.095825,1812.656372 1367.303711,1813.013794 
z"/>
<path fill="#1CAEFE" opacity="1.000000" stroke="none" 
	d="
M1303.303223,1850.013184 
	C1303.440796,1849.609009 1303.905273,1849.186768 1304.698242,1848.872314 
	C1304.561157,1849.318359 1304.095703,1849.656860 1303.303223,1850.013184 
z"/>
<path fill="#1CAEFE" opacity="1.000000" stroke="none" 
	d="
M1315.304443,1843.014893 
	C1315.442017,1842.622070 1315.906250,1842.210205 1316.699707,1841.889893 
	C1316.563110,1842.319580 1316.097168,1842.657837 1315.304443,1843.014893 
z"/>
<path fill="#1CAEFE" opacity="1.000000" stroke="none" 
	d="
M1348.303467,1824.013672 
	C1348.441162,1823.613403 1348.905762,1823.195068 1349.699097,1822.878784 
	C1349.562012,1823.319092 1349.096191,1823.657349 1348.303467,1824.013672 
z"/>
<path fill="#1CAEFE" opacity="1.000000" stroke="none" 
	d="
M1322.303589,1839.013550 
	C1322.441040,1838.614014 1322.905273,1838.196411 1323.698730,1837.879639 
	C1323.562012,1838.318848 1323.096313,1838.657104 1322.303589,1839.013550 
z"/>
<path fill="#1CAEFE" opacity="1.000000" stroke="none" 
	d="
M1341.303833,1828.014160 
	C1341.441528,1827.619995 1341.905762,1827.206665 1342.698975,1826.886963 
	C1342.562256,1827.318726 1342.096436,1827.656982 1341.303833,1828.014160 
z"/>
<path fill="#213147" opacity="1.000000" stroke="none" 
	d="
M1175.238525,1779.959473 
	C1153.695923,1792.509155 1132.179565,1805.104248 1110.604126,1817.597534 
	C1079.807861,1835.429932 1048.813965,1852.928223 1018.224609,1871.107910 
	C1006.284729,1878.203979 995.674194,1878.038940 983.716614,1871.041016 
	C932.049866,1840.804199 880.100098,1811.050903 827.895874,1780.652832 
	C838.765442,1749.182861 849.955994,1718.168457 861.228882,1687.184204 
	C874.433044,1650.891479 887.722900,1614.629883 900.949890,1578.345459 
	C913.778625,1543.153320 926.565247,1507.945801 939.387817,1472.751465 
	C952.592407,1436.508667 965.818298,1400.273804 979.034485,1364.035278 
	C991.867981,1328.845703 1004.703247,1293.656860 1017.533264,1258.466064 
	C1030.689087,1222.381836 1043.842163,1186.296631 1056.991333,1150.209961 
	C1069.814941,1115.016479 1082.624390,1079.818115 1095.454346,1044.626953 
	C1108.609741,1008.543213 1121.789551,972.468384 1134.945557,936.384827 
	C1147.817017,901.081970 1160.665894,865.770813 1173.535522,830.467224 
	C1186.632446,794.539978 1199.750732,758.620483 1212.844971,722.692200 
	C1227.077271,683.640808 1241.286255,644.580750 1255.518677,605.529297 
	C1263.598145,583.360535 1271.783203,561.229858 1279.768188,539.027222 
	C1284.453979,525.997742 1277.106079,515.810852 1263.498047,516.117737 
	C1262.165649,516.147766 1260.831909,516.124023 1259.498779,516.124023 
	C1199.840942,516.124207 1140.183228,516.109741 1080.525391,516.133850 
	C1064.520386,516.140320 1052.832520,524.121460 1047.008057,538.919678 
	C1045.808960,541.966553 1044.787964,545.083130 1043.662109,548.159363 
	C1034.558960,573.034546 1025.496216,597.924622 1016.330078,622.776550 
	C1007.960205,645.469543 999.355164,668.076294 991.076904,690.802307 
	C982.797302,713.532104 974.876343,736.392334 966.647888,759.141113 
	C957.638489,784.049072 948.503479,808.911926 939.336975,833.762634 
	C930.966553,856.455017 922.364563,879.062500 914.078674,901.785461 
	C905.734680,924.667603 897.711182,947.666382 889.442810,970.576355 
	C880.602600,995.070557 871.655701,1019.526367 862.727173,1043.988525 
	C853.645081,1068.871460 844.576599,1093.759399 835.413269,1118.612427 
	C827.045959,1141.306030 818.449646,1163.915527 810.156616,1186.636230 
	C801.766113,1209.623657 793.671265,1232.718872 785.360657,1255.735840 
	C776.534119,1280.181885 767.625244,1304.598267 758.717163,1329.014771 
	C749.638123,1353.899658 740.563843,1378.786499 731.399048,1403.639771 
	C723.030701,1426.333618 714.433838,1448.943481 706.140137,1471.664185 
	C697.748779,1494.652344 689.651733,1517.747559 681.341492,1540.765503 
	C672.515259,1565.212402 663.611023,1589.631104 654.702576,1614.048218 
	C645.623535,1638.932983 636.487854,1663.796997 627.395447,1688.677002 
	C616.005127,1719.845215 604.611328,1751.012329 593.303833,1782.210571 
	C592.541199,1784.314453 592.490906,1786.676636 592.109314,1788.918701 
	C579.402527,1781.777100 566.659729,1774.698486 553.998779,1767.476685 
	C540.760071,1759.925293 527.600220,1752.236084 514.454102,1744.104004 
	C517.204895,1736.510254 519.984131,1729.447632 522.596497,1722.323853 
	C532.745422,1694.647461 542.880920,1666.966187 552.944153,1639.258545 
	C560.679626,1617.960205 568.324158,1596.628906 575.963196,1575.295654 
	C582.734314,1556.385986 589.372314,1537.428467 596.195129,1518.537476 
	C605.081726,1493.932617 614.031921,1469.350098 623.067932,1444.799683 
	C631.349365,1422.299194 639.894409,1399.895508 648.115479,1377.373169 
	C656.581543,1354.179688 664.679016,1330.851685 673.153870,1307.661377 
	C681.839722,1283.893677 690.903015,1260.264038 699.586548,1236.495605 
	C707.602905,1214.552979 715.214417,1192.462402 723.225403,1170.517822 
	C731.675171,1147.371094 740.505615,1124.363403 748.949890,1101.214844 
	C757.126648,1078.799683 764.903992,1056.238892 773.077332,1033.822510 
	C781.290283,1011.297363 789.888794,988.912781 798.109558,966.390381 
	C806.575378,943.196655 814.680420,919.871216 823.144226,896.676819 
	C831.420227,873.997131 840.005798,851.430664 848.353210,828.776794 
	C857.627686,803.607178 866.793152,778.397278 875.993774,753.200439 
	C883.485596,732.683411 890.955444,712.158325 898.442017,691.639282 
	C907.636230,666.439941 916.831543,641.241089 926.037842,616.046082 
	C933.591125,595.375122 941.323425,574.767517 948.640930,554.013489 
	C951.425110,546.117004 955.770691,538.627014 955.091553,529.667603 
	C954.542175,522.419678 948.517456,516.003296 941.282227,516.006714 
	C878.954590,516.036499 816.627014,516.074341 754.299377,516.130798 
	C737.618408,516.145935 725.879395,524.411804 720.114929,540.179260 
	C712.901672,559.909424 705.734436,579.656433 698.543884,599.394958 
	C688.281433,627.565735 678.025818,655.739075 667.748718,683.904480 
	C658.668335,708.789856 649.547546,733.660522 640.471802,758.547546 
	C630.199707,786.715088 619.971802,814.898743 609.698853,843.065979 
	C599.312134,871.544983 588.883728,900.008789 578.492188,928.486084 
	C569.524963,953.060486 560.596375,977.648926 551.628113,1002.222900 
	C541.235535,1030.699585 530.803833,1059.161987 520.416138,1087.640381 
	C511.509033,1112.059814 502.652985,1136.498169 493.750854,1160.919434 
	C483.369171,1189.399780 472.954926,1217.868408 462.567871,1246.346802 
	C453.604706,1270.921265 444.671600,1295.506714 435.703827,1320.079468 
	C425.311707,1348.555176 414.944702,1377.039917 404.475586,1405.487305 
	C396.065948,1428.338501 387.463257,1451.118652 379.057251,1473.971191 
	C374.263245,1487.004272 369.691589,1500.119141 365.019836,1513.197266 
	C356.896942,1508.667847 348.719666,1504.232910 340.660950,1499.592041 
	C312.100433,1483.145508 283.659607,1466.489014 255.003540,1450.211182 
	C244.507355,1444.249146 239.515701,1435.558594 239.336014,1423.756348 
	C239.308105,1421.923584 239.324265,1420.090210 239.324265,1418.257080 
	C239.323883,1139.625488 239.374329,860.993774 239.189301,582.362244 
	C239.179001,566.862915 245.093582,556.584534 258.623230,548.789917 
	C479.003906,421.825562 699.230713,294.594177 919.491821,167.422363 
	C940.969727,155.021713 962.699219,143.030075 983.820129,130.048386 
	C995.388672,122.937950 1005.774475,123.750687 1016.907349,130.235153 
	C1050.132812,149.587799 1083.470703,168.747543 1116.769409,187.974564 
	C1326.792603,309.244812 1536.802002,430.539520 1746.885498,551.705444 
	C1757.745972,557.969177 1762.671143,566.937134 1762.672852,579.098999 
	C1762.675415,597.430054 1762.676025,615.761047 1762.676025,634.092102 
	C1762.676270,895.725891 1762.627197,1157.359619 1762.801270,1418.993286 
	C1762.811401,1434.260742 1757.147949,1444.711670 1743.673828,1452.256104 
	C1708.245117,1472.092896 1673.215576,1492.642578 1637.589111,1512.606079 
	C1636.947388,1511.669189 1636.765259,1511.026611 1636.536987,1510.400757 
	C1538.770264,1242.477783 1441.000122,974.556091 1343.231812,706.633667 
	C1340.897217,700.235962 1335.164917,696.077209 1328.421997,695.914368 
	C1319.980225,695.710510 1314.632324,699.900269 1311.091187,709.616150 
	C1279.581421,796.069946 1248.116577,882.540161 1216.538696,968.968994 
	C1212.876221,978.993042 1212.957886,988.715454 1216.598755,998.692627 
	C1283.280518,1181.421265 1349.902832,1364.171509 1416.560913,1546.908813 
	C1425.966553,1572.693726 1435.494141,1598.434082 1444.965332,1624.195068 
	C1425.629639,1635.475342 1406.300659,1646.767456 1386.954102,1658.029053 
	C1380.932251,1661.534180 1374.862549,1664.957275 1368.349121,1668.127808 
	C1367.631226,1667.221191 1367.357910,1666.612671 1367.130005,1665.987549 
	C1311.804321,1514.184448 1256.480103,1362.380981 1201.161011,1210.575439 
	C1194.381348,1191.971069 1187.655273,1173.347046 1180.849243,1154.752319 
	C1178.691162,1148.856323 1175.370728,1143.803101 1168.530640,1143.066895 
	C1156.657104,1141.789307 1151.967285,1144.954834 1147.838013,1156.280029 
	C1116.374634,1242.574341 1084.986816,1328.896484 1053.343628,1415.125000 
	C1049.593750,1425.343872 1049.555054,1434.903564 1053.278076,1445.062012 
	C1078.071411,1512.711304 1102.671875,1580.431396 1127.315308,1648.135620 
	C1143.307007,1692.070801 1159.265381,1736.017822 1175.238525,1779.959473 
z"/>
<path fill="#FFFFFF" opacity="1.000000" stroke="none" 
	d="
M592.473511,1788.958740 
	C592.490906,1786.676636 592.541199,1784.314453 593.303833,1782.210571 
	C604.611328,1751.012329 616.005127,1719.845215 627.395447,1688.677002 
	C636.487854,1663.796997 645.623535,1638.932983 654.702576,1614.048218 
	C663.611023,1589.631104 672.515259,1565.212402 681.341492,1540.765503 
	C689.651733,1517.747559 697.748779,1494.652344 706.140137,1471.664185 
	C714.433838,1448.943481 723.030701,1426.333618 731.399048,1403.639771 
	C740.563843,1378.786499 749.638123,1353.899658 758.717163,1329.014771 
	C767.625244,1304.598267 776.534119,1280.181885 785.360657,1255.735840 
	C793.671265,1232.718872 801.766113,1209.623657 810.156616,1186.636230 
	C818.449646,1163.915527 827.045959,1141.306030 835.413269,1118.612427 
	C844.576599,1093.759399 853.645081,1068.871460 862.727173,1043.988525 
	C871.655701,1019.526367 880.602600,995.070557 889.442810,970.576355 
	C897.711182,947.666382 905.734680,924.667603 914.078674,901.785461 
	C922.364563,879.062500 930.966553,856.455017 939.336975,833.762634 
	C948.503479,808.911926 957.638489,784.049072 966.647888,759.141113 
	C974.876343,736.392334 982.797302,713.532104 991.076904,690.802307 
	C999.355164,668.076294 1007.960205,645.469543 1016.330078,622.776550 
	C1025.496216,597.924622 1034.558960,573.034546 1043.662109,548.159363 
	C1044.787964,545.083130 1045.808960,541.966553 1047.008057,538.919678 
	C1052.832520,524.121460 1064.520386,516.140320 1080.525391,516.133850 
	C1140.183228,516.109741 1199.840942,516.124207 1259.498779,516.124023 
	C1260.831909,516.124023 1262.165649,516.147766 1263.498047,516.117737 
	C1277.106079,515.810852 1284.453979,525.997742 1279.768188,539.027222 
	C1271.783203,561.229858 1263.598145,583.360535 1255.518677,605.529297 
	C1241.286255,644.580750 1227.077271,683.640808 1212.844971,722.692200 
	C1199.750732,758.620483 1186.632446,794.539978 1173.535522,830.467224 
	C1160.665894,865.770813 1147.817017,901.081970 1134.945557,936.384827 
	C1121.789551,972.468384 1108.609741,1008.543213 1095.454346,1044.626953 
	C1082.624390,1079.818115 1069.814941,1115.016479 1056.991333,1150.209961 
	C1043.842163,1186.296631 1030.689087,1222.381836 1017.533264,1258.466064 
	C1004.703247,1293.656860 991.867981,1328.845703 979.034485,1364.035278 
	C965.818298,1400.273804 952.592407,1436.508667 939.387817,1472.751465 
	C926.565247,1507.945801 913.778625,1543.153320 900.949890,1578.345459 
	C887.722900,1614.629883 874.433044,1650.891479 861.228882,1687.184204 
	C849.955994,1718.168457 838.765442,1749.182861 827.529480,1780.583252 
	C822.762817,1793.576050 817.911133,1806.134888 813.267334,1818.770142 
	C804.143433,1843.594849 795.127380,1868.459229 786.098511,1893.318726 
	C785.535095,1894.869873 785.246643,1896.520874 784.806152,1898.516846 
	C776.501282,1894.419312 768.149170,1890.056152 759.956299,1885.411987 
	C747.539307,1878.373413 735.226868,1871.150146 722.881470,1863.985596 
	C706.646362,1854.563599 690.432373,1845.104858 674.189819,1835.695679 
	C662.806519,1829.101440 651.384888,1822.573120 639.990784,1815.997437 
	C624.990417,1807.340576 610.001892,1798.663452 595.001221,1790.007202 
	C594.314758,1789.610962 593.560425,1789.332153 592.473511,1788.958740 
z"/>
<path fill="#FFFFFF" opacity="1.000000" stroke="none" 
	d="
M364.995361,1513.558960 
	C369.691589,1500.119141 374.263245,1487.004272 379.057251,1473.971191 
	C387.463257,1451.118652 396.065948,1428.338501 404.475586,1405.487305 
	C414.944702,1377.039917 425.311707,1348.555176 435.703827,1320.079468 
	C444.671600,1295.506714 453.604706,1270.921265 462.567871,1246.346802 
	C472.954926,1217.868408 483.369171,1189.399780 493.750854,1160.919434 
	C502.652985,1136.498169 511.509033,1112.059814 520.416138,1087.640381 
	C530.803833,1059.161987 541.235535,1030.699585 551.628113,1002.222900 
	C560.596375,977.648926 569.524963,953.060486 578.492188,928.486084 
	C588.883728,900.008789 599.312134,871.544983 609.698853,843.065979 
	C619.971802,814.898743 630.199707,786.715088 640.471802,758.547546 
	C649.547546,733.660522 658.668335,708.789856 667.748718,683.904480 
	C678.025818,655.739075 688.281433,627.565735 698.543884,599.394958 
	C705.734436,579.656433 712.901672,559.909424 720.114929,540.179260 
	C725.879395,524.411804 737.618408,516.145935 754.299377,516.130798 
	C816.627014,516.074341 878.954590,516.036499 941.282227,516.006714 
	C948.517456,516.003296 954.542175,522.419678 955.091553,529.667603 
	C955.770691,538.627014 951.425110,546.117004 948.640930,554.013489 
	C941.323425,574.767517 933.591125,595.375122 926.037842,616.046082 
	C916.831543,641.241089 907.636230,666.439941 898.442017,691.639282 
	C890.955444,712.158325 883.485596,732.683411 875.993774,753.200439 
	C866.793152,778.397278 857.627686,803.607178 848.353210,828.776794 
	C840.005798,851.430664 831.420227,873.997131 823.144226,896.676819 
	C814.680420,919.871216 806.575378,943.196655 798.109558,966.390381 
	C789.888794,988.912781 781.290283,1011.297363 773.077332,1033.822510 
	C764.903992,1056.238892 757.126648,1078.799683 748.949890,1101.214844 
	C740.505615,1124.363403 731.675171,1147.371094 723.225403,1170.517822 
	C715.214417,1192.462402 707.602905,1214.552979 699.586548,1236.495605 
	C690.903015,1260.264038 681.839722,1283.893677 673.153870,1307.661377 
	C664.679016,1330.851685 656.581543,1354.179688 648.115479,1377.373169 
	C639.894409,1399.895508 631.349365,1422.299194 623.067932,1444.799683 
	C614.031921,1469.350098 605.081726,1493.932617 596.195129,1518.537476 
	C589.372314,1537.428467 582.734314,1556.385986 575.963196,1575.295654 
	C568.324158,1596.628906 560.679626,1617.960205 552.944153,1639.258545 
	C542.880920,1666.966187 532.745422,1694.647461 522.596497,1722.323853 
	C519.984131,1729.447632 517.204895,1736.510254 514.238770,1743.846191 
	C504.296753,1738.392700 494.638428,1732.659180 484.935089,1727.002808 
	C468.705414,1717.542114 452.456726,1708.113892 436.197632,1698.703857 
	C424.242676,1691.784912 412.252075,1684.927612 400.288849,1678.022827 
	C383.885437,1668.555542 367.497162,1659.061890 351.093964,1649.593994 
	C341.498810,1644.055908 331.884277,1638.551514 322.290863,1633.010498 
	C321.818848,1632.737793 321.465820,1632.259277 321.068359,1631.518799 
	C323.483002,1625.593750 326.155640,1620.125732 328.246063,1614.443359 
	C340.562775,1580.963379 352.744049,1547.433594 364.995361,1513.558960 
z"/>
<path fill="#12AAFF" opacity="1.000000" stroke="none" 
	d="
M1445.317627,1624.104492 
	C1435.494141,1598.434082 1425.966553,1572.693726 1416.560913,1546.908813 
	C1349.902832,1364.171509 1283.280518,1181.421265 1216.598755,998.692627 
	C1212.957886,988.715454 1212.876221,978.993042 1216.538696,968.968994 
	C1248.116577,882.540161 1279.581421,796.069946 1311.091187,709.616150 
	C1314.632324,699.900269 1319.980225,695.710510 1328.421997,695.914368 
	C1335.164917,696.077209 1340.897217,700.235962 1343.231812,706.633667 
	C1441.000122,974.556091 1538.770264,1242.477783 1636.536987,1510.400757 
	C1636.765259,1511.026611 1636.947388,1511.669189 1637.259277,1512.685303 
	C1623.466919,1521.226929 1609.609375,1529.461792 1595.657593,1537.533691 
	C1546.277710,1566.103271 1496.866089,1594.617676 1447.462769,1623.146973 
	C1446.889526,1623.478027 1446.268555,1623.726807 1445.317627,1624.104492 
z"/>
<path fill="#12AAFF" opacity="1.000000" stroke="none" 
	d="
M1175.566650,1779.896973 
	C1159.265381,1736.017822 1143.307007,1692.070801 1127.315308,1648.135620 
	C1102.671875,1580.431396 1078.071411,1512.711304 1053.278076,1445.062012 
	C1049.555054,1434.903564 1049.593750,1425.343872 1053.343628,1415.125000 
	C1084.986816,1328.896484 1116.374634,1242.574341 1147.838013,1156.280029 
	C1151.967285,1144.954834 1156.657104,1141.789307 1168.530640,1143.066895 
	C1175.370728,1143.803101 1178.691162,1148.856323 1180.849243,1154.752319 
	C1187.655273,1173.347046 1194.381348,1191.971069 1201.161011,1210.575439 
	C1256.480103,1362.380981 1311.804321,1514.184448 1367.130005,1665.987549 
	C1367.357910,1666.612671 1367.631226,1667.221191 1367.992188,1668.236572 
	C1347.115356,1680.850220 1326.160400,1693.117432 1305.138062,1705.267944 
	C1262.076172,1730.156738 1218.977905,1754.982666 1175.566650,1779.896973 
z"/>
</svg>